<?xml version="1.0" encoding="UTF-8" standalone="no"?><!DOCTYPE svg PUBLIC "-//W3C//DTD SVG 1.1//EN" "http://www.w3.org/Graphics/SVG/1.1/DTD/svg11.dtd"><svg width="100%" height="100%" viewBox="0 0 600 608" version="1.1" xmlns="http://www.w3.org/2000/svg" xmlns:xlink="http://www.w3.org/1999/xlink" xml:space="preserve" xmlns:serif="http://www.serif.com/" style="fill-rule:evenodd;clip-rule:evenodd;"><rect x="0" y="0" width="600" height="600" style="fill:url(#_Linear1);"/><g id="svga-group-subwrapper"><clipPath id="_clip2"><rect x="101.04" y="130.393" width="397.919" height="469.607"/></clipPath><g clip-path="url(#_clip2)"><g id="svga-group-humanbody-single"><path id="SvgjsPath2893" d="M477.988,536.86c-4.096,-8.853 -15.287,-21.972 -27.719,-25.596c-15.369,-4.483 -50.062,-9.902 -62.925,-12.914c-10.312,-2.418 -31.081,-21.068 -38.36,-27.328c-1.306,-1.119 -2.375,-3.431 -2.401,-5.149c-0.259,-20.265 7.825,-74.1 7.825,-74.1l-54.409,0l-54.407,0c0,0 8.084,53.833 7.821,74.1c-0.02,1.718 -1.095,4.03 -2.397,5.149c-7.279,6.26 -28.048,24.91 -38.36,27.328c-12.865,3.012 -47.558,8.616 -62.925,13.098c-12.436,3.623 -23.623,16.558 -27.719,25.411c-6.917,14.938 -8.551,41.971 -8.551,65.288l373.076,0c0,-23.315 -1.636,-50.349 -8.549,-65.287Z" style="fill:#ffd0bc;fill-rule:nonzero;"/><path id="SvgjsPath2894" d="M410.348,507.537c45.407,6.607 64.516,16.243 70.5,94.614l5.689,0c0,-23.318 -1.636,-50.351 -8.549,-65.289c-4.096,-8.853 -15.287,-21.972 -27.719,-25.596c-15.369,-4.483 -50.062,-9.902 -62.925,-12.914c-10.312,-2.418 -34.029,-22.514 -40.373,-30.499c6.268,8.774 23.86,29.109 39.274,34.435c7.374,2.548 13.515,3.708 24.103,5.249Zm-196.593,-5.249c15.414,-5.324 33.004,-25.661 39.274,-34.435c-6.343,7.983 -30.059,28.081 -40.373,30.499c-12.863,3.012 -47.556,8.616 -62.925,13.098c-12.432,3.623 -23.623,16.557 -27.719,25.41c-6.913,14.938 -8.549,41.972 -8.549,65.289l5.689,0c5.947,-77.869 25.136,-88.014 70.5,-94.614c10.587,-1.539 16.729,-2.699 24.103,-5.247Z" style="fill:#ffe2d6;fill-rule:nonzero;"/><path id="SvgjsPath2895" d="M291.877,532.835c0,0 -9.465,-3.001 -13.212,-4.438c-19.492,-7.478 -82.814,-12.324 -82.814,-12.324c0,0 66.695,2.647 81.413,5.184c-0.855,-8.893 -5.628,-37.316 -5.628,-37.316c0,0 9.605,31.367 11.955,39.28c1.257,4.23 8.286,9.614 8.286,9.614Zm20.144,-2.503c-0.166,0.136 -0.356,0.313 -0.563,0.5c0.211,-0.159 0.401,-0.325 0.563,-0.5Zm-20.144,2.503c0,0 5.397,5.581 8.109,5.652c3.563,0.095 9.006,-5.408 11.474,-7.655c-2.36,1.785 -7.758,2.594 -9.905,2.678c-2.481,0.095 -9.678,-0.675 -9.678,-0.675Zm39.207,-14.026c-2.882,0.463 -8.182,1.472 -8.182,1.472l4.266,-27.776c-1.205,5.729 -8.345,30.24 -15.147,37.827c3.563,-3.015 11.487,-4.46 15.528,-5.044c19.094,-2.769 19.086,-2.767 76.596,-9.215c0,0 -54.228,-0.289 -73.061,2.736Z" style="fill:#f0b399;fill-rule:nonzero;"/><path id="SvgjsPath2896" d="M477.988,536.86c-4.096,-8.853 -15.287,-21.972 -27.719,-25.596c-15.369,-4.483 -50.062,-9.902 -62.925,-12.914c-10.312,-2.418 -31.081,-21.068 -38.36,-27.328c-1.306,-1.119 -2.375,-3.431 -2.401,-5.149c-0.259,-20.265 7.825,-74.1 7.825,-74.1l-54.409,0l-54.407,0c0,0 8.084,53.833 7.821,74.1c-0.02,1.718 -1.095,4.03 -2.397,5.149c-7.279,6.26 -28.048,24.91 -38.36,27.328c-12.865,3.012 -47.558,8.616 -62.925,13.098c-12.436,3.623 -23.623,16.558 -27.719,25.411c-6.917,14.938 -8.551,41.971 -8.551,65.288l373.076,0c0,-23.315 -1.636,-50.349 -8.549,-65.287Z" style="fill:none;stroke:#d17f5b;stroke-width:2.8px;"/></g><path id="SvgjsPath3413" d="M300.038,484.794c15.265,0 31.471,-9.221 45.141,-19.913c-0.002,-12.502 2.706,-35.638 4.947,-52.613c-28.694,-4.192 -71.642,-4.251 -100.294,-0.284c2.208,16.714 4.896,39.558 4.982,52.268c13.696,11.03 29.93,20.542 45.224,20.542Z" style="fill:url(#_Linear3);fill-rule:nonzero;"/><g id="svga-group-clothes-single"><path id="SvgjsPath3634" d="M193.243,603.975l2.468,-113.512c0,0 19.016,-4.639 31.031,-11.776c32.637,40.95 129.552,32.332 146.126,-1.157c2.778,0.979 5.076,2.233 7.951,3.196c9.326,6.316 17.185,8.383 17.185,8.383l1.744,115.066c-26.648,0.35 -206.505,-0.2 -206.505,-0.2Z" style="fill:#f5f4f5;fill-rule:nonzero;"/><path id="SvgjsPath3635" d="M400.756,495.686c-7.902,-1.341 -14.198,-3.166 -17.632,-6.611c-9.967,18.7 -49.923,30.551 -63.152,32.288c38.341,-11.707 54.446,-20.17 60.807,-40.261c3.712,4.446 12.166,6.621 22.969,8.465l-2.992,6.119Zm-189.045,-6.201c2.712,-0.582 4.066,-2.301 6.758,-2.971l-2.85,-3.483c-5.809,4.167 -16.735,6.165 -29.66,8.253l0.351,6.972c7.379,-1.473 14.581,-3.335 21.319,-6.198c13.959,15.828 35.756,23.614 57.939,26.837c-27.828,-6.687 -43.784,-17.975 -53.857,-29.41Z" style="fill:#fff;fill-rule:nonzero;"/><path id="SvgjsPath3636" d="M370.624,481.416c-11.06,21.192 -94.649,45.879 -141.785,1.615c-2.931,1.147 -11.698,3.889 -11.698,3.889c34.334,43.053 134.951,43.328 161.732,-0.208c-0.116,-0.045 -5.525,-4.024 -8.249,-5.296Z" style="fill:#dfdde2;fill-rule:nonzero;"/><path id="SvgjsPath3637" d="M372.764,477.286c-18.816,34.649 -116.732,39.553 -145.946,1.166c-10.67,2.902 -20.927,9.095 -31.256,10.645l-2.319,114.878l206.504,0.2l-1.595,-116.374c-6.285,-1.319 -12.127,-5.106 -17.263,-7.264c-2.839,-1.192 -5.249,-2.264 -8.125,-3.251Zm-146.653,2.324c25.935,43.064 128.37,34.426 148.147,0.185c2.399,0.931 3.013,1.298 5.794,2.206c-20.486,39.561 -121.821,52.17 -163.268,2.14c0.291,-0.075 6.404,-3.52 9.327,-4.531Zm-11.384,6.214c33.508,50.451 144.119,42.635 167.106,-2.401c3.304,2.595 8.45,5.576 14.804,6.967l3.097,110.207l-205.896,0.03l3.552,-108.75c5.193,-2.61 13.532,-4.535 17.337,-6.053Z" style="fill:#b8b6c9;fill-rule:nonzero;"/><path id="SvgjsPath3638" d="M105.013,603.619c-4.802,-25.84 -4.276,-88.777 16.812,-88.645c24.504,-9.907 54.598,-21.273 79.842,-28.561c12.886,-13.516 25.064,-26.371 48.851,-39.759c0.726,4.849 3.496,15.933 0.021,21.962c-2.528,4.387 -10.788,10.401 -17.822,15.609c-3.785,5.074 -7.326,10.025 -12.31,16.954c9.64,41.6 17.91,63.013 18.835,99.095c0,0 -2.709,1.285 120.263,0.741c4.132,-41.671 9.314,-62.604 19.36,-100.914c0,0 -8.036,-9.353 -13.443,-16.546c-3.832,-3.725 -15.595,-14.05 -16.49,-16.137c-2.192,-5.113 -1.022,-11.543 0.205,-21.204c20.133,9.09 31.711,22.424 48.653,39.738c14.417,3.953 57.565,18.593 79.176,28.384c7.396,-0.205 11.571,3.729 14.684,10.196c10.083,20.883 7.697,50.919 4.067,79.818c-35.612,0.058 -289.198,4.126 -390.704,-0.731Z" style="fill:#1d282e;fill-rule:nonzero;"/><path id="SvgjsPath3639" d="M251.266,451.618c0.298,1.996 0.567,3.889 0.767,5.673c-0.407,0.496 -32.107,43.562 -32.339,43.883c7.79,-17.719 18.934,-36.08 31.572,-49.556Zm97.332,0c-0.297,1.996 -0.343,3.889 -0.543,5.673c0.407,0.496 31.583,41.913 31.812,42.236c-8.254,-16.509 -18.631,-34.433 -31.269,-47.909Zm72.666,57.963c-7.984,11.623 -9.689,15.636 -18.428,27.154c1.997,0 5.221,0.31 7.219,0.31c6.834,-11.724 6.847,-17.691 11.209,-27.464Zm8.181,84.362c7.076,-16.602 12.935,-31.172 20.033,-47.799l-2.327,-3.756c-5.911,17.077 -12.184,34.431 -17.706,51.555Zm-239.414,-56.898c1.998,0 5.221,-0.31 7.221,-0.31c-8.739,-11.518 -10.444,-12.238 -18.426,-23.861c4.357,9.772 4.37,12.447 11.205,24.171Zm-37.097,5.343l-2.326,3.756c7.1,16.627 8.889,31.197 15.966,47.799c-5.523,-17.124 -7.728,-34.478 -13.64,-51.555Z" style="fill:#101a1f;fill-rule:nonzero;"/><path id="SvgjsPath3640" d="M235.901,479.976c2.203,-3.071 9.769,-13.565 16.044,-23.431c1.843,10.179 -1.541,16.217 -16.044,23.431Zm112.113,-24.107c4.762,8.201 10.375,16.363 16.162,23.883c-15.677,-7.139 -16.731,-14.438 -16.162,-23.883Z" style="fill:#070c0f;fill-rule:nonzero;"/><path id="SvgjsPath3641" d="M349.092,446.541c0.015,-0.114 0.032,-0.221 0.043,-0.325c33.75,18.652 53.305,46.672 76.009,67.559c-0.836,1.344 -2.291,2.225 -3.147,3.553c-23.774,-18.09 -35.073,-45.442 -72.905,-70.787Zm-101.816,1.236c-28.044,15.321 -67.605,62.224 -71.478,65.79c0.836,1.351 1.289,1.077 2.145,2.403c23.777,-18.089 30.266,-35.994 69.333,-68.193Zm229.69,66.561c-1.866,-1.491 -45.974,-18.727 -79.447,-27.923c62.86,30.404 85.037,34.593 96.013,45.368c-0.714,-1.864 -2.171,-17.846 -16.566,-17.445Zm-274.978,-28.259c-25.227,7.301 -57.526,18.837 -80.164,28.897c-10.006,0.198 -17.177,14.792 -18.712,30.003c13.919,-31.363 7.042,-10.279 98.876,-58.9Z" style="fill:#2d373d;fill-rule:nonzero;"/><path id="SvgjsPath3642" d="M498.849,556.044c-0.635,-16.108 -5.699,-43.096 -21.809,-41.896c-1.331,-1.138 -38.84,-18.22 -78.877,-29.121c-13.716,-13.906 -30.807,-32.827 -49.192,-39.093c-1.326,11.991 -2.755,19.814 0.403,23.717c4.18,4.549 9.196,9.101 14.117,12.166c8.611,11.446 15.182,18.24 15.182,18.24c-10.129,38.618 -16.443,58.412 -20.468,100.148l-116.41,0c-4.023,-41.734 -10.339,-61.528 -20.468,-100.148c0,0 6.57,-6.796 15.182,-18.24c4.923,-3.067 9.937,-7.617 14.117,-12.166c3.156,-3.903 1.729,-11.726 0.403,-23.717c-18.385,6.266 -35.478,25.187 -49.192,39.093c-40.037,10.903 -77.546,27.983 -78.877,29.121c-16.112,-1.2 -21.176,25.788 -21.809,41.896c-0.766,19.562 2.677,46.519 2.957,48.384l391.784,0c0.28,-1.867 3.723,-28.822 2.957,-48.384Zm-249.245,-87.427c-4.212,4.166 -6.824,5.934 -12.075,9.853c9.008,-11.697 8.098,-10.134 14.379,-20.946c0.281,4.648 -1.466,10.267 -2.304,11.093Zm-142.06,132.133c-2.018,-23.959 -5.439,-45.534 0.802,-69.004c2.39,-9.005 4.634,-15.101 13.907,-15.873c1.99,10.331 15.169,53.581 26.671,83.071c-11.614,-45.127 -9.907,-35.088 -15.332,-53.074c-1.798,-6.034 -3.458,-12.099 -5.557,-18.042c-1.46,-4.13 -3.078,-8.183 -4.219,-12.41l75.423,-27.729c-0.521,0.528 -24.054,25.06 -24.621,25.75c3.445,5.635 14.579,13.472 20.23,21.933c-23.198,2.19 -34.525,5.919 -42.904,7.163c0.617,1.714 16.902,47.293 18.609,51.589c-2.759,-14.768 -8.984,-37.862 -16.111,-50.759c2.63,-0.334 33.72,-4.648 43.636,-6.486c-2.753,-5.324 -15.003,-15.738 -21.562,-23.539c38.513,-33.879 47.422,-51.115 73.856,-66.135c0.28,2.815 0.827,5.616 1.026,8.429c-29.463,43.898 -32.922,43.962 -32.922,43.962c8.553,33.222 19.647,66.825 19.647,100.866l-130.579,0.288Zm242.85,-132.133c-0.836,-0.826 -2.585,-6.445 -2.304,-11.093c6.281,10.814 5.371,9.249 14.379,20.946c-5.251,-3.919 -7.865,-5.685 -12.075,-9.853Zm142.06,132.133l-130.577,-0.288c0,-34.041 11.094,-67.646 19.647,-100.866c0,0 -3.459,-0.064 -32.922,-43.962c0.197,-2.813 0.744,-5.614 1.026,-8.429c26.434,15.02 35.341,32.256 73.856,66.135c-6.559,7.803 -18.809,18.217 -21.562,23.539c9.914,1.836 41.004,6.152 43.636,6.486c-7.125,12.897 -13.35,35.991 -16.111,50.759c1.707,-4.298 17.992,-49.875 18.609,-51.589c-8.379,-1.244 -19.706,-4.973 -42.904,-7.163c5.649,-8.461 16.785,-16.296 20.23,-21.933c-0.568,-0.69 -24.1,-25.222 -24.621,-25.75c0.002,0 75.423,27.729 75.423,27.729c-1.139,4.229 -2.759,8.28 -4.219,12.41c-2.099,5.943 -3.759,12.008 -5.557,18.042c-5.425,17.988 -3.718,7.947 -15.332,53.074c11.502,-29.492 24.679,-72.74 26.671,-83.071c9.273,0.772 11.517,6.868 13.907,15.873c6.24,23.47 2.818,45.047 0.8,69.004Z" style="fill-rule:nonzero;"/></g><g id="svga-group-head"><g id="svga-group-ears-left"><path id="SvgjsPath3469" d="M198.491,324.578c-2.631,-4.363 -11.212,-16.302 -17.776,-14.627c-5.337,1.368 -5.268,8.809 -5.681,13.211c-0.603,6.458 -0.822,17.707 0.93,22.272c1.686,4.382 7.018,12.851 10.328,16.082c4.074,3.96 10.58,16.583 11.381,17.893c1.26,2.07 3.787,5.033 7.664,4.799c5.442,-0.328 10.144,-5.471 10.571,-7.948c2.305,-13.451 -10.567,-40.33 -17.417,-51.682Z" style="fill:#ffd0bc;fill-rule:nonzero;stroke:#d17f5b;stroke-width:2.66px;"/><path id="SvgjsPath3470" d="M195.885,351.154c-0.254,-0.997 0.012,-2.681 0.273,-4.304c0.235,-1.48 0.457,-2.878 0.322,-3.867c-0.512,-3.704 -3.393,-10.739 -5.274,-14.553c-2.167,-4.387 -5.669,-9.914 -10.064,-11.339c-1.814,-0.59 -3.01,0.115 -3.701,0.829c-0.511,0.525 -0.626,1.143 -0.459,1.218c0.168,0.072 0.544,-0.44 1.093,-0.92c0.45,-0.394 -0.9,-0.071 0,0c-0.363,1.843 -1.533,11.168 -0.727,17.974c0.635,5.356 1.861,9.355 2.239,9.954c0.055,0.631 0.147,1.25 0.283,1.849c1.776,7.815 13.323,18.034 16.009,20.946c0.497,0.537 1.018,0.856 1.145,0.725c0.128,-0.131 -0.179,-0.661 -0.671,-1.202c-2.655,-2.892 -14.126,-13.08 -15.841,-20.618c-1.82,-8 6.932,-19.86 8.327,-22.37c0.71,1.179 1.315,2.309 1.779,3.252c0.367,0.739 0.769,1.606 1.187,2.543c-0.82,1.308 -9.069,10.858 -6.971,18.503c0.776,2.819 6.773,6.454 9.092,7.448c1.276,0.549 1.755,1.368 2.311,2.314c0.645,1.106 0.059,3.95 2.18,4.854c0.432,0.184 0.822,0.259 1.168,0.259c0.599,0 1.052,-0.23 1.387,-0.503c0.036,0.48 0.034,1.097 0.016,1.667c-0.021,0.741 0.084,1.079 0.263,1.094c0.182,0.016 0.372,-0.309 0.395,-1.041c0.03,-0.903 0.025,-2.022 -0.137,-2.559c-0.476,-1.575 -1.928,-3.356 -3.468,-5.24c-1.513,-1.852 -1.763,-5.367 -2.156,-6.913Zm-16.359,-6.927c-4.161,-12.268 2.274,-23.443 3.208,-25.127c1.793,0.707 4.54,3.887 5.708,5.733c-0.851,1.476 -8.742,11.141 -8.916,19.394Zm19.144,19.55c-1.921,-0.819 -1.251,-3.516 -1.871,-4.579c-0.563,-0.961 -1.145,-1.953 -2.621,-2.587c-0.319,-0.139 -0.671,-0.348 -1.033,-0.589c-4.753,-10.765 0.519,-15.47 1.841,-16.433c0.406,1.315 0.707,2.522 0.844,3.492c0.12,0.886 -0.105,2.3 -0.321,3.664c-0.271,1.693 -0.549,3.445 -0.261,4.579c0.433,1.689 0.729,5.264 2.288,7.174c1.384,1.694 2.806,3.441 3.291,4.866c-0.209,0.284 -0.866,0.964 -2.157,0.413Z" style="fill:#d17f5b;fill-rule:nonzero;"/></g><g id="svga-group-ears-right"><path id="SvgjsPath3471" d="M401.016,324.578c2.633,-4.363 11.214,-16.302 17.776,-14.627c5.338,1.368 5.269,8.809 5.683,13.211c0.603,6.458 0.821,17.707 -0.93,22.272c-1.685,4.382 -7.019,12.851 -10.328,16.082c-4.074,3.96 -10.581,16.583 -11.38,17.893c-1.26,2.07 -3.787,5.033 -7.667,4.799c-5.44,-0.328 -10.141,-5.471 -10.57,-7.948c-2.304,-13.451 10.57,-40.33 17.416,-51.682Z" style="fill:#ffd0bc;fill-rule:nonzero;stroke:#d17f5b;stroke-width:2.66px;"/><path id="SvgjsPath3472" d="M401.47,358.069c-1.54,1.884 -2.992,3.665 -3.468,5.24c-0.163,0.539 -0.167,1.657 -0.138,2.559c0.024,0.732 0.214,1.056 0.398,1.04c0.181,-0.014 0.284,-0.352 0.263,-1.093c-0.018,-0.571 -0.022,-1.187 0.014,-1.668c0.335,0.273 0.788,0.504 1.387,0.504c0.346,0 0.737,-0.075 1.17,-0.259c2.118,-0.906 1.533,-3.75 2.178,-4.854c0.556,-0.946 1.035,-1.767 2.312,-2.314c2.32,-0.994 8.317,-4.627 9.093,-7.448c2.098,-7.645 -6.151,-17.197 -6.971,-18.503c0.414,-0.937 0.82,-1.804 1.183,-2.543c0.468,-0.943 1.071,-2.075 1.783,-3.252c1.395,2.509 10.145,14.368 8.327,22.37c-1.717,7.538 -13.186,17.726 -15.841,20.618c-0.494,0.541 -0.802,1.07 -0.675,1.202c0.131,0.131 0.651,-0.188 1.145,-0.725c2.687,-2.912 14.232,-13.132 16.007,-20.947c0.139,-0.599 0.233,-1.217 0.288,-1.848c0.373,-0.597 1.602,-4.597 2.236,-9.954c0.806,-6.807 -0.363,-16.131 -0.727,-17.974c0.901,-0.071 -0.45,-0.394 0,0c0.552,0.48 0.927,0.992 1.094,0.919c0.166,-0.074 0.051,-0.691 -0.457,-1.217c-0.693,-0.714 -1.889,-1.42 -3.704,-0.829c-4.395,1.424 -7.898,6.952 -10.066,11.339c-1.88,3.814 -4.76,10.849 -5.272,14.553c-0.134,0.989 0.087,2.387 0.323,3.867c0.258,1.623 0.526,3.306 0.273,4.304c-0.394,1.544 -0.642,5.059 -2.155,6.913Zm9.598,-33.236c1.169,-1.846 3.914,-5.024 5.708,-5.733c0.933,1.684 7.368,12.859 3.209,25.127c-0.174,-8.253 -8.065,-17.918 -8.917,-19.394Zm-12.384,38.528c0.484,-1.425 1.907,-3.172 3.291,-4.867c1.558,-1.91 1.855,-5.484 2.288,-7.173c0.287,-1.134 0.01,-2.887 -0.259,-4.579c-0.218,-1.365 -0.443,-2.779 -0.323,-3.665c0.135,-0.969 0.436,-2.176 0.842,-3.491c1.322,0.962 6.594,5.669 1.841,16.433c-0.359,0.241 -0.712,0.45 -1.035,0.588c-1.474,0.634 -2.055,1.627 -2.621,2.587c-0.62,1.064 0.052,3.763 -1.869,4.579c-1.29,0.555 -1.948,-0.125 -2.155,-0.412Z" style="fill:#d17f5b;fill-rule:nonzero;"/></g><g id="svga-group-faceshape-single"><path id="SvgjsPath3410" d="M409.655,309.709l-0.009,0c-0.019,0.086 -22.752,75.119 -29.62,97.78c-1.334,4.398 -3.602,8.489 -6.634,11.912c-11.891,13.42 -44.336,46.741 -73.354,46.741c-29.564,0 -62.66,-35.526 -74.07,-48.899c-2.69,-3.149 -4.677,-6.777 -5.917,-10.754c-6.729,-21.547 -30.081,-96.343 -30.102,-96.429l-0.002,0c-2.421,-9.312 -3.719,-19.085 -3.734,-29.163c-0.097,-63.468 50.652,-114.982 113.363,-115.081c62.716,-0.099 113.626,51.253 113.721,114.719c0.016,10.078 -1.248,19.855 -3.642,29.174Z" style="fill:#ffd0bc;fill-rule:nonzero;"/><path id="SvgjsPath3411" d="M360.005,183.337c26.693,20.771 44.155,54.949 44.207,93.657c0.017,10.081 -1.147,19.857 -3.35,29.177l-0.007,0c-0.017,0.086 -20.936,75.119 -27.25,97.777c-1.227,4.399 -3.313,8.49 -6.102,11.911c-10.94,13.421 -40.788,46.744 -67.485,46.744c-27.201,0 -57.648,-35.53 -68.144,-48.901c-2.476,-3.15 -4.302,-6.776 -5.444,-10.752c-6.189,-21.548 -27.674,-96.345 -27.693,-96.43l-0.002,0c-2.227,-9.312 -3.421,-19.085 -3.436,-29.164c-0.054,-38.85 17.438,-73.195 44.234,-94.037c-32.072,20.349 -53.384,56.442 -53.32,97.578c0.015,10.078 1.313,19.853 3.734,29.163l0.002,0c0.019,0.086 23.373,74.882 30.102,96.429c1.242,3.977 3.227,7.603 5.917,10.754c11.408,13.373 44.504,48.899 74.07,48.899c29.02,0 61.463,-33.319 73.354,-46.741c3.032,-3.423 5.3,-7.512 6.634,-11.912c6.868,-22.661 29.601,-97.694 29.62,-97.78l0.009,0c2.394,-9.321 3.658,-19.096 3.642,-29.176c-0.062,-40.994 -21.34,-76.91 -53.292,-97.196Z" style="fill:#f7c1aa;fill-rule:nonzero;"/><path id="SvgjsPath3412" d="M409.655,309.709l-0.009,0c-0.019,0.086 -22.752,75.119 -29.62,97.78c-1.334,4.398 -3.602,8.489 -6.634,11.912c-11.891,13.42 -44.336,46.741 -73.354,46.741c-29.564,0 -62.66,-35.526 -74.07,-48.899c-2.69,-3.149 -4.677,-6.777 -5.917,-10.754c-6.729,-21.547 -30.081,-96.343 -30.102,-96.429l-0.002,0c-2.421,-9.312 -3.719,-19.085 -3.734,-29.163c-0.097,-63.468 50.652,-114.982 113.363,-115.081c62.716,-0.099 113.626,51.253 113.721,114.719c0.016,10.078 -1.248,19.855 -3.642,29.174Z" style="fill:none;stroke:#d17f5b;stroke-width:2.8px;"/></g><g id="svga-group-mouth-single"><path id="SvgjsPath3417" d="M292.961,423.928l15.477,-0.386c-1.793,8.339 -14.251,7.141 -15.477,0.386Z" style="fill:url(#_Linear4);fill-rule:nonzero;"/><path id="SvgjsPath3421" d="M293.177,424.456c-0.692,-0.093 -0.587,-1.08 0.15,-1.011c0.08,0.012 8.036,1.019 14.695,-0.401c0.72,-0.14 0.933,0.849 0.243,0.996c-5.218,1.116 -11.969,0.855 -15.088,0.416Zm6.977,-6.659c-2.804,0 -5.522,-0.972 -8.253,-1.448c-3.059,-0.535 -6.107,-0.076 -9.168,0.194c-3.126,0.278 -9.948,-0.024 -11.873,-1.242c-1.078,-0.685 -0.877,-2.278 0.338,-2.703c1.145,-0.41 2.93,0.44 4.087,0.647c5.357,0.961 8.177,-0.063 12.874,-0.22c7.184,-0.216 7.947,2.8 16.908,0.989c9.635,-1.947 13.974,-0.474 20.887,-2.556c0.948,-0.287 2.074,-1.044 3.069,-0.533c1.147,0.593 1.091,2.21 -0.092,2.731c-6.353,2.802 -13.382,1.669 -20.435,2.846c-2.765,0.459 -5.52,1.295 -8.342,1.295Z" style="fill:#d17f5b;fill-rule:nonzero;"/></g><g id="svga-group-eyes-left"><path id="SvgjsPath3473" d="M228.652,318.135c-0.944,-4.262 9.683,-7.411 23.711,-5.691c14.024,1.722 23.761,10.304 22.481,14.632c-0.708,2.399 -19.845,6.053 -26.587,5.311c-6.835,-0.756 -17.326,-3.96 -19.605,-14.252Z" style="fill:url(#_Radial5);fill-rule:nonzero;"/><g id="svga-group-eyesiris-left"><path id="SvgjsPath3336" d="M262.762,324.319c-1.621,5.954 -7.76,9.463 -13.725,7.827c-5.96,-1.634 -9.482,-7.793 -7.857,-13.75c1.619,-5.959 7.773,-9.468 13.733,-7.83c5.956,1.632 9.472,7.791 7.849,13.753Z" style="fill:#00459c;fill-rule:nonzero;stroke:#00316e;stroke-width:0.93px;"/><path id="SvgjsPath3337" d="M250.594,314.666l-0.291,-0.521c-1.022,0.407 -2.007,0.83 -2.938,1.282l0.691,1.667l-0.088,0.965l-2.66,-1.565c-0.869,0.483 -1.675,0.987 -2.459,1.499l0.008,0.017l-0.912,1.026l1.457,1.491l-1.963,1.07l0.743,1.226l3.464,0.345l-3.248,2.203l3.475,-0.192l-1.832,3.158l4.285,-2.593l-1.153,4.41l2.479,-4.074l0.478,4.371l0.716,-3.866l0.659,-0.08l0.932,4.384l0.284,-1.315c0.375,-0.097 1.339,1.313 1.707,1.214l-1.09,-4.768l2.392,4.768l-0.97,-4.945l2.943,3.824c0.107,-0.034 0.366,-1.586 0.471,-1.617l-1.832,-2.74l3.329,1.005l-1.997,-2.164l-1.605,-1.328l6.69,1.498l-3.726,-2.27l2.632,-1.077l-5.698,-0.576l5.635,-2.988l-5.1,1.302l-1.373,-0.745l-0.337,-0.66l0.097,-1.578l0.113,-2.591l-2.328,4.1l-0.205,-3.001l-0.293,-0.786c-0.466,0.163 -0.923,0.321 -1.373,0.495l-0.209,0.72Z" style="fill:#1155ab;fill-rule:nonzero;"/><path id="SvgjsPath3338" d="M262.889,319.034c-9.778,0.446 -14.749,2.537 -21.838,4.908c-1.365,-6.023 2.421,-12.009 8.45,-13.363c6.029,-1.355 12.025,2.43 13.388,8.455Z" style="fill:#003e8d;fill-opacity:0.9;fill-rule:nonzero;"/><path id="SvgjsPath3339" d="M253.587,317.622c-2.461,-0.705 -4.974,0.7 -5.606,3.153c-0.638,2.44 0.843,4.995 3.304,5.7c2.462,0.707 4.975,-0.699 5.613,-3.141c0.639,-2.453 -0.847,-5.007 -3.311,-5.712Z" style="fill-opacity:0.8;fill-rule:nonzero;"/><path id="SvgjsPath3340" d="M253.587,317.622c-2.461,-0.705 -4.974,0.7 -5.606,3.153c-0.638,2.44 0.843,4.995 3.304,5.7c2.462,0.707 4.975,-0.699 5.613,-3.141c0.639,-2.453 -0.847,-5.007 -3.311,-5.712Z" style="fill:none;stroke:#00316e;stroke-width:1.4px;"/><path id="SvgjsPath3341" d="M243.816,327.998c1.143,1.815 2.66,3.182 4.809,3.637c2.473,0.524 2.755,-2.766 0.985,-3.143c-1.344,-0.284 -2.194,-0.942 -2.896,-2.056c-1.283,-2.039 -3.928,-0.073 -2.898,1.562Z" style="fill:#fff;fill-opacity:0.4;fill-rule:nonzero;"/><path id="SvgjsPath3342" d="M253.892,316.68c1.733,0.349 2.741,1.433 3.616,3.059c1.608,2.993 6.153,0.333 4.545,-2.658c-1.412,-2.626 -3.766,-4.874 -6.762,-5.48c-3.837,-0.774 -4.374,4.479 -1.399,5.079Z" style="fill:url(#_Linear6);fill-rule:nonzero;"/></g><g id="svga-group-eyesfront-left"><path id="SvgjsPath3495" d="M212.875,319.025c1.509,20.331 21.707,43.991 38.251,41.479c19.583,0.197 38.919,-14.677 38.919,-41.608c0,-26.93 -9.489,-49.484 -39.409,-49.484c-21.452,-0.002 -37.761,22.683 -37.761,49.613Zm15.777,-0.89c-0.944,-4.262 9.683,-7.411 23.711,-5.691c14.024,1.722 23.761,10.304 22.481,14.632c-0.708,2.399 -19.845,6.053 -26.587,5.311c-6.835,-0.756 -17.326,-3.96 -19.605,-14.252Z" style="fill:#ffd0bc;fill-rule:nonzero;"/><path id="SvgjsPath3496" d="M248.257,332.387c6.742,0.742 25.879,-2.912 26.587,-5.311c1.282,-4.328 -8.457,-12.91 -22.481,-14.632c-12.051,-1.477 -21.57,0.642 -23.422,3.97c1.675,-11.939 14.364,-21.26 29.822,-21.329c16.622,-0.069 30.122,10.588 30.167,23.811c0.039,13.222 -13.403,23.993 -30.023,24.067c-16.627,0.069 -30.124,-10.587 -30.169,-23.809c0,-0.196 0.03,-0.388 0.035,-0.584c2.481,9.937 12.748,13.072 19.484,13.817Z" style="fill:url(#_Radial7);fill-rule:nonzero;"/><path id="SvgjsPath3501" d="M228.652,318.135c-0.944,-4.262 9.683,-7.411 23.711,-5.691c14.024,1.722 23.761,10.304 22.481,14.632c-0.708,2.399 -19.845,6.053 -26.587,5.311c-6.835,-0.756 -17.326,-3.96 -19.605,-14.252Z" style="fill:url(#_Radial8);fill-rule:nonzero;"/><path id="SvgjsPath3505" d="M229.391,308.611c7.849,-3.69 17.441,-4.03 25.813,-1.875c4.484,1.046 9.261,2.397 13.175,4.921c3.628,2.117 6.575,4.663 9.331,7.816c-2.504,-3.173 -5.173,-5.817 -8.624,-7.965c-4.246,-2.642 -8.896,-4.28 -13.737,-5.44c-8.554,-2.1 -18.135,-1.623 -25.958,2.543Z" style="fill:#d17f5b;fill-rule:nonzero;"/><path id="SvgjsPath3506" d="M230.549,309.735c1.642,-0.656 7.583,-1.865 10.178,-1.988c3.146,-0.153 9.463,0.233 12.563,0.791c6.294,1.134 17.257,4.632 21.784,13.401c1.391,2.695 0.138,4.581 -0.23,4.99c0.56,-4.526 -9.024,-12.584 -22.481,-14.185c-14.028,-1.667 -24.655,1.386 -23.711,5.518c2.279,9.976 12.77,13.082 19.605,13.813c7.646,0.819 21.795,-2.871 23.664,-3.27c-3.729,1.882 -14.035,3.908 -18.219,4.296c-1.388,0.131 -4.178,0.194 -5.57,0.159c-11.097,-0.295 -18.969,-5.923 -21.879,-13.543c-1.869,-4.898 0.175,-8.336 4.296,-9.982Z" style="fill-rule:nonzero;"/></g></g><g id="svga-group-eyes-right"><path id="SvgjsPath3480" d="M370.602,318.135c0.944,-4.262 -9.683,-7.411 -23.711,-5.691c-14.024,1.722 -23.761,10.304 -22.482,14.632c0.709,2.399 19.846,6.053 26.588,5.311c6.834,-0.756 17.325,-3.96 19.605,-14.252Z" style="fill:url(#_Radial9);fill-rule:nonzero;"/><g id="svga-group-eyesiris-right"><path id="SvgjsPath3346" d="M358.829,324.317c-1.621,5.956 -7.76,9.465 -13.725,7.827c-5.96,-1.634 -9.48,-7.793 -7.857,-13.749c1.617,-5.96 7.773,-9.469 13.731,-7.831c5.96,1.636 9.474,7.795 7.851,13.753Z" style="fill:#00459c;fill-rule:nonzero;stroke:#00316e;stroke-width:0.93px;"/><path id="SvgjsPath3347" d="M346.663,314.666l-0.289,-0.519c-1.022,0.405 -2.007,0.83 -2.94,1.28l0.691,1.667l-0.088,0.965l-2.66,-1.565c-0.871,0.483 -1.675,0.987 -2.457,1.499l0.008,0.017l-0.914,1.028l1.458,1.491l-1.962,1.068l0.741,1.226l3.464,0.345l-3.248,2.203l3.475,-0.192l-1.832,3.156l4.283,-2.593l-1.149,4.41l2.477,-4.074l0.48,4.371l0.716,-3.867l0.659,-0.081l0.934,4.384l0.282,-1.313c0.375,-0.097 1.341,1.311 1.707,1.214l-1.092,-4.768l2.394,4.768l-0.972,-4.945l2.942,3.824c0.106,-0.033 0.367,-1.585 0.471,-1.617l-1.831,-2.74l3.331,1.003l-1.998,-2.164l-1.602,-1.328l6.689,1.496l-3.725,-2.268l2.632,-1.076l-5.697,-0.575l5.636,-2.99l-5.1,1.302l-1.373,-0.744l-0.336,-0.661l0.097,-1.58l0.114,-2.589l-2.326,4.1l-0.206,-3.001l-0.291,-0.787c-0.466,0.162 -0.923,0.322 -1.371,0.494l-0.222,0.726Z" style="fill:#1155ab;fill-rule:nonzero;"/><path id="SvgjsPath3348" d="M358.954,319.034c-9.774,0.446 -14.747,2.537 -21.836,4.908c-1.363,-6.023 2.422,-12.009 8.45,-13.363c6.029,-1.357 12.027,2.43 13.386,8.455Z" style="fill:#003e8d;fill-opacity:0.9;fill-rule:nonzero;"/><path id="SvgjsPath3349" d="M349.655,317.622c-2.46,-0.705 -4.973,0.702 -5.605,3.153c-0.64,2.44 0.841,4.995 3.302,5.7c2.466,0.707 4.977,-0.699 5.613,-3.141c0.64,-2.453 -0.849,-5.007 -3.31,-5.712Z" style="fill-opacity:0.8;fill-rule:nonzero;"/><path id="SvgjsPath3350" d="M349.655,317.622c-2.46,-0.705 -4.973,0.702 -5.605,3.153c-0.64,2.44 0.841,4.995 3.302,5.7c2.466,0.707 4.977,-0.699 5.613,-3.141c0.64,-2.453 -0.849,-5.007 -3.31,-5.712Z" style="fill:none;stroke:#00316e;stroke-width:1.4px;"/><path id="SvgjsPath3351" d="M339.885,327.998c1.141,1.815 2.66,3.182 4.807,3.637c2.473,0.524 2.757,-2.764 0.985,-3.143c-1.343,-0.284 -2.196,-0.94 -2.895,-2.056c-1.282,-2.039 -3.929,-0.073 -2.897,1.562Z" style="fill:#fff;fill-opacity:0.4;fill-rule:nonzero;"/><path id="SvgjsPath3352" d="M349.961,316.68c1.733,0.349 2.741,1.431 3.616,3.058c1.607,2.992 6.155,0.332 4.545,-2.659c-1.412,-2.626 -3.764,-4.874 -6.762,-5.48c-3.837,-0.772 -4.376,4.481 -1.399,5.081Z" style="fill:url(#_Linear10);fill-rule:nonzero;"/></g><g id="svga-group-eyesfront-right"><path id="SvgjsPath3515" d="M348.616,269.41c-29.92,0 -39.409,22.554 -39.409,49.484c0,26.931 19.336,41.807 38.919,41.608c16.544,2.512 36.742,-21.148 38.251,-41.479c0.002,-26.928 -16.309,-49.613 -37.761,-49.613Zm2.381,62.977c-6.742,0.742 -25.879,-2.912 -26.588,-5.311c-1.281,-4.328 8.458,-12.91 22.482,-14.632c14.028,-1.72 24.655,1.431 23.711,5.691c-2.28,10.292 -12.771,13.496 -19.605,14.252Z" style="fill:#ffd0bc;fill-rule:nonzero;"/><path id="SvgjsPath3516" d="M350.997,332.387c-6.742,0.742 -25.879,-2.912 -26.588,-5.311c-1.281,-4.328 8.458,-12.91 22.482,-14.632c12.05,-1.477 21.569,0.644 23.422,3.97c-1.675,-11.939 -14.364,-21.26 -29.822,-21.329c-16.623,-0.069 -30.122,10.588 -30.167,23.811c-0.039,13.222 13.403,23.993 30.023,24.067c16.626,0.069 30.124,-10.587 30.169,-23.809c0,-0.196 -0.03,-0.388 -0.035,-0.584c-2.483,9.937 -12.75,13.072 -19.484,13.817Z" style="fill:url(#_Radial11);fill-rule:nonzero;"/><path id="SvgjsPath3521" d="M370.602,318.135c0.944,-4.262 -9.683,-7.411 -23.711,-5.691c-14.024,1.722 -23.761,10.304 -22.482,14.632c0.709,2.399 19.846,6.053 26.588,5.311c6.834,-0.756 17.325,-3.96 19.605,-14.252Z" style="fill:url(#_Radial12);fill-rule:nonzero;"/><path id="SvgjsPath3525" d="M369.861,308.611c-7.849,-3.69 -17.441,-4.03 -25.813,-1.875c-4.484,1.046 -9.261,2.397 -13.175,4.921c-3.628,2.117 -6.575,4.663 -9.331,7.816c2.504,-3.173 5.173,-5.817 8.624,-7.965c4.246,-2.642 8.896,-4.28 13.737,-5.44c8.556,-2.1 18.137,-1.623 25.958,2.543Z" style="fill:#d17f5b;fill-rule:nonzero;"/><path id="SvgjsPath3526" d="M368.705,309.735c-1.642,-0.656 -7.583,-1.865 -10.178,-1.988c-3.147,-0.153 -9.463,0.233 -12.563,0.791c-6.294,1.134 -17.257,4.632 -21.784,13.401c-1.392,2.695 -0.138,4.581 0.229,4.99c-0.559,-4.526 9.025,-12.584 22.482,-14.185c14.028,-1.667 24.655,1.386 23.711,5.518c-2.28,9.976 -12.771,13.082 -19.605,13.813c-7.646,0.819 -21.795,-2.871 -23.665,-3.27c3.729,1.882 14.036,3.908 18.22,4.296c1.388,0.131 4.178,0.194 5.57,0.159c11.097,-0.295 18.969,-5.923 21.879,-13.543c1.869,-4.898 -0.176,-8.336 -4.296,-9.982Z" style="fill-rule:nonzero;"/></g></g><g id="svga-group-facehighlight-single"><path id="SvgjsPath2885" d="M376.48,376.803c0.065,42.199 -34.122,76.47 -76.365,76.528c-42.236,0.069 -76.533,-34.087 -76.598,-76.294c-0.066,-42.195 34.121,-76.6 76.363,-76.668c42.237,-0.065 76.538,34.23 76.6,76.434Z" style="fill:url(#_Radial13);fill-rule:nonzero;"/><path id="SvgjsPath2889" d="M369.951,264.927c0,38.634 -31.318,69.952 -69.95,69.952c-38.634,0 -69.954,-31.318 -69.954,-69.952c0,-38.634 31.32,-69.952 69.954,-69.952c38.632,0 69.95,31.318 69.95,69.952Z" style="fill:url(#_Radial14);fill-rule:nonzero;"/></g><path id="SvgjsPath3334" d="M212.604,304.095c18.175,-28.196 68.07,9.603 70.918,-2.222c0.558,-2.371 -0.759,-3.759 -2.917,-4.649c-25.409,-10.27 -59.036,-18.902 -68.001,6.871Z" style="fill:#3b3128;fill-rule:nonzero;"/><path id="SvgjsPath3335" d="M387.394,304.095c-18.174,-28.196 -68.07,9.603 -70.918,-2.222c-0.558,-2.371 0.759,-3.759 2.917,-4.649c25.409,-10.27 59.036,-18.902 68.001,6.871Z" style="fill:#3b3128;fill-rule:nonzero;"/><g id="svga-group-nose-single"><path id="SvgjsPath3422" d="M283.425,379.648c-1.638,3.85 11.069,8.006 15.891,8.262c5.223,0.274 19.859,-5.41 17.378,-9.312c-2.609,-4.095 -12.391,-0.534 -16.613,-0.534c-4.201,-0.002 -14.462,-3.553 -16.656,1.584Z" style="fill:#f0b399;fill-rule:nonzero;"/><path id="SvgjsPath3423" d="M303.463,382.556c-0.429,-1.416 3.5,-2.955 4.956,-3.16c2.054,-0.298 6.268,1.496 5.891,2.97c-0.343,1.302 -4.007,-0.994 -5.335,-0.8c-1.369,0.199 -5.105,2.316 -5.512,0.99Zm-12.839,-0.461c1.805,0 4.484,1.163 4.976,0.138c0.588,-1.221 -3.99,-2.725 -5.334,-2.559c-1.112,0.131 -5.099,2.453 -4.55,3.431c0.511,0.897 2.527,-1.01 4.908,-1.01Z" style="fill:#d17f5b;fill-rule:nonzero;"/><path id="SvgjsPath3424" d="M300.165,373.119c1.132,0 3.25,-1.38 3.343,-4.16c0.375,-11.207 -1.783,-44.457 -3.343,-44.34c-1.455,0.11 -4.229,32.9 -3.634,44.34c0.148,2.802 2.356,4.16 3.634,4.16Z" style="fill:#fff4ef;fill-opacity:0.2;fill-rule:nonzero;"/></g><g id="svga-group-hair-front"><path id="SvgjsPath3529" d="M398.833,348.132c-8.512,-23.196 1.337,-58.77 -15.306,-85.089c-7.581,-12.614 -14.171,-21.282 -12.964,-35.957l-0.687,-0.231c-1.608,2.522 -3.719,5.26 -5.12,7.014c0.796,-2.036 2.095,-5.153 3.27,-7.505l-0.62,-0.407c-4.822,5.733 -8.963,8.673 -14.66,10.26c6.156,-4.328 12.963,-11.858 15.942,-16.033l-0.506,-0.53c-21.114,13.586 -45.075,13.771 -66.213,13.937c-19.077,0.141 -30.926,-0.29 -44.682,-8.285c-9.925,3.291 -17.741,2.871 -26.331,-3.049c-26.888,52.131 -14.942,26.035 -31.016,122.674c-9.334,-12.442 -12.047,-20.355 -14.255,-32.209c-0.584,-3.781 -1.155,-9.614 -0.8,-13.459l-0.118,-0.121c-8.305,-18.225 -12.224,-28.602 -10.25,-64.751c1.464,-14.998 4.725,-26.257 14.128,-38.05c-1.24,-6.408 -1.36,-12.868 -0.517,-19.046c-4.924,-9.004 -8.314,-18.271 -9.634,-21.582c6.879,5.266 7.448,5.57 13.188,7.381c1.313,-3.613 3.227,-7.202 4.453,-9.075c0.554,4.175 0.994,6.995 2.244,11.052c0.425,0.103 2.449,0.651 3.096,0.825c-0.371,-2.47 -0.71,-3.615 -0.658,-5.829c1.065,2.428 1.964,2.992 5.055,6.764c3.421,0.718 2.6,0.611 3.626,0.611c-4.978,-7.803 -8.338,-14.708 -9.19,-25.21c6.814,3.882 16.348,6.1 26.303,6.1c23.39,0 47.323,-17.557 80.527,-17.557c28.773,0 53.669,15.963 64.697,34.142c-0.011,-4.69 -0.211,-8.57 1.481,-13.39c0,0 0.196,6.911 0.196,12.297l0.739,0.069c1.156,-6.158 3.596,-11.407 7.625,-16.365c-3.578,9.621 -2.216,4.484 -6.219,16.232l0.649,0.349c2.67,-3.431 4.856,-5.856 11.228,-9.07c-4.604,4.614 -8.124,7.257 -10.301,10.519l0.562,0.483c2.716,-2.462 5.542,-3.395 8.416,-1.143c-4.628,-1.683 -7.36,1.267 -10.535,4.99c12.347,2.035 19.045,9.159 27.727,18.682c19.982,23.041 25.244,45.535 14.406,77.424c4.542,9.818 3.843,31.945 -6.296,49.78c-0.003,10.464 -7.163,23.377 -12.68,32.358Z" style="fill:#543c32;fill-rule:nonzero;"/><path id="SvgjsPath3530" d="M229.672,220.852c0.67,0.623 1.34,1.246 2.004,1.873c-0.241,-0.159 -0.481,-0.306 -0.724,-0.472c-26.888,52.132 -14.942,26.035 -31.016,122.675c-9.334,-12.442 -12.046,-20.355 -14.255,-32.21c-0.584,-3.781 -1.155,-9.614 -0.8,-13.459l-0.118,-0.121c-8.304,-18.225 -12.224,-28.602 -10.25,-64.751c1.464,-14.998 4.725,-26.257 14.128,-38.05c-1.22,-6.301 -1.343,-12.651 -0.546,-18.736c1.114,1.631 2.281,3.218 3.475,4.785c0.804,4.895 1.485,9.668 0.237,13.524c-17.794,54.988 -7.462,80.211 3.731,119.384c-4.597,-29.717 -13.323,-67.499 10.481,-89.538c-10.168,24.429 -7.36,35.506 -4.885,52.231c1.71,-22.232 9.691,-42.912 28.538,-57.135Zm173.729,-32.292c-0.702,-0.768 -1.384,-1.514 -2.063,-2.251c-0.713,0.475 -1.444,0.912 -2.162,1.375c27.898,57.194 1.108,51.702 7.493,77.243c7.46,18.654 -2.209,29.848 -2.209,48.502c0,-27.981 -1.27,-47.454 -16.713,-69.346c-5.216,-7.392 -6.68,-32.5 -10.195,-44.907c-43.28,26.58 -107.395,32.141 -174.709,-21.579c31.711,11.193 96.345,2.519 118.531,-11.781c-25.29,4.59 -78.088,4.865 -101.831,-4.908c56.894,-4.421 56.206,-22.683 104.706,-26.115c-23.317,-8.706 -74.25,13.531 -97.638,13.531c-9.953,0 -19.487,-2.216 -26.303,-6.1c0.852,10.502 4.212,17.41 9.19,25.211c-1.028,0 -0.205,0.106 -3.626,-0.612c-3.093,-3.772 -3.992,-4.337 -5.055,-6.764c-0.054,2.214 0.287,3.36 0.658,5.829c-0.647,-0.173 -2.673,-0.721 -3.096,-0.824c-1.25,-4.057 -1.69,-6.878 -2.244,-11.052c-1.224,1.872 -3.14,5.461 -4.453,9.075c-5.742,-1.812 -6.309,-2.116 -13.188,-7.382c1.32,3.311 4.71,12.581 9.634,21.583c-0.013,0.102 -0.016,0.207 -0.029,0.309c11.761,17.227 28.296,30.725 43.581,45.128c8.308,5.454 15.963,5.775 25.609,2.578c13.756,7.995 25.606,8.426 44.682,8.284c21.138,-0.164 45.099,-0.351 66.213,-13.936l0.506,0.529c-2.979,4.175 -9.786,11.706 -15.942,16.033c5.699,-1.589 9.838,-4.529 14.66,-10.259l0.62,0.406c-1.176,2.355 -2.474,5.47 -3.27,7.505c1.401,-1.754 3.512,-4.492 5.12,-7.014l0.687,0.231c-1.205,14.677 5.383,23.344 12.964,35.957c16.643,26.319 6.796,61.896 15.305,85.09c5.518,-8.982 12.678,-21.892 12.678,-32.368c10.138,-17.835 10.837,-39.962 6.295,-49.78c10.838,-31.885 5.576,-54.379 -14.406,-77.421Zm1.367,47.845c-0.615,-17.765 -12.373,-40.314 -12.373,-40.314c-5.495,-9.708 -10.407,-14.339 -18.646,-16.22c23.179,1.155 32.282,35.777 31.28,53.863c-0.095,1.679 -0.261,2.671 -0.261,2.671Zm-52.712,-75.018c6.124,4.968 7.587,6.386 13.61,14.754c-31.064,-55.755 -92.025,-13.562 -111.302,-14.923c19.596,4.049 63.903,-24.609 97.692,0.169Zm15.785,24.235c-37.235,30.869 -94.09,17.792 -140.592,3.218c46.312,21.211 105.273,32.689 140.592,-3.218Zm-146.432,33.577c-12.198,6.389 -17.938,22.478 -18.468,33.111c2.278,-9.176 9.113,-26.011 18.468,-33.111Zm-15.39,-8.86c-17.458,10.63 -20.843,35.015 -19.12,55.495c1.836,-18.919 5.246,-43.604 19.12,-55.495Zm125.811,-23.122c-1.877,0.401 -13.541,2 -19.907,2.229c-4.964,0.29 -24.319,0.612 -41.768,-0.089c18.01,3.859 28.827,4.577 41.963,3.815c15.121,-0.547 28.653,-3.541 39.865,-12.678c-7.899,4.349 -11.266,4.968 -20.153,6.723Zm62.574,49.517c0,0 -0.477,-0.823 -1.097,-2.056c-1.699,-2.848 -3.628,-10.597 -11.076,-34.95c5.532,45.133 14.581,36.901 18.637,60.22c0.002,-8.386 -0.584,-12.686 -6.464,-23.214Z" style="fill:#452c22;fill-rule:nonzero;"/><path id="SvgjsPath3531" d="M407.917,291.289c0.679,-6.055 0.405,-3.28 0.479,-6.734c0.571,-11.648 -6.39,-21.413 -2.152,-35.418c3.458,-10.172 5.456,-11.767 3.941,-29.475c-0.222,-2.556 -0.884,-8.906 -2.055,-11.189c1.596,2.778 2.652,7.919 3.217,11.069c3.147,17.802 0.5,20.505 -2.837,30.345c-4.458,14.867 4.098,21.425 -0.593,41.402Zm-30.365,-92.113c2.084,56.652 13.573,43.493 23.722,77.884c-6.89,-40.565 -13.264,-6.934 -23.722,-77.884Zm-173.864,28.884c-17.143,21.569 -15.412,37.119 -11.193,69.019c-0.38,-32.29 -4.316,-44.545 11.193,-69.019Zm-12.306,-30.818c-9.838,30.441 -11.993,44.179 -7.27,77.012c-0.875,-32.916 -0.666,-40.182 7.27,-77.012Zm37.643,24.114c-17.964,12.906 -27.341,36.516 -27.891,56.631c2.764,-19.223 13.08,-43.469 27.891,-56.631Zm124.8,-11.28c-22.48,8.276 -59.071,10.492 -85.785,2.466c-20.82,-6.072 -53.328,-26.476 -70.814,-39.306c15.852,12.62 43.782,31.352 63.285,38.755c20.263,7.572 52.02,10.385 76.632,4.188c17.251,-4.335 26.191,-8.431 40.409,-17.001c-6.329,3.47 -15.652,8.376 -23.727,10.898Zm-48.579,-67.505c22.696,-4.262 49.45,10.368 63.53,27.664c-14.731,-21.113 -38.869,-31.617 -53.279,-31.866c-23.652,-0.411 -48.118,19.853 -95.954,21.604c44.98,1.981 66.602,-14.309 85.703,-17.402Zm17.826,23.931c-32.251,11.459 -57.155,14.201 -91.044,16.005c35,2.155 60.023,-1.24 91.044,-16.005Zm33.888,6.535c-19.888,9.377 -28.596,10.914 -69.647,13.414c25.736,1.039 49.779,-0.299 69.647,-13.414Zm-65.825,28.512c19.855,2.307 54.635,-0.196 72.043,-18.258c-21.023,17.71 -59.915,17.075 -90.247,15.87c11.61,1.812 9.515,1.509 18.204,2.388Zm85.1,-17.326c14.231,5.24 17.701,30.206 23.318,50.366c-2.513,-17.869 -6.805,-46.489 -23.318,-50.366Z" style="fill:#634e45;fill-rule:nonzero;"/><path id="SvgjsPath3532" d="M403.675,188.309c-8.111,-8.896 -15.393,-16.733 -27.29,-18.692c3.906,-4.594 6.651,-6.303 11.658,-3.451c-2.966,-3.49 -6.374,-4.152 -10.502,-0.41c2.371,-3.553 6.469,-6.454 11.752,-11.994c-7.892,3.702 -10.265,6.23 -13.282,10.11c4.263,-12.504 2.425,-5.835 6.94,-18.187c-4.718,5.29 -7.734,11.043 -9.064,18.131c0,-11.011 -0.345,-9.588 -0.131,-14.401c-2.587,5.762 -2.292,10.838 -2.292,14.159c-4.166,-6.869 -10.286,-12.685 -16.884,-17.442c-46.735,-34.116 -93.342,-2.716 -118.601,1.082c-10.239,1.729 -25.582,0.631 -36.095,-5.671c0.743,10.752 4.072,17.893 8.935,25.519c-0.002,0 -2.742,-0.578 -2.742,-0.578c-3.766,-4.541 -4.13,-4.395 -5.521,-8.078c-0.357,3.289 0.188,5.112 0.466,6.977c-0.929,-0.243 -1.785,-0.5 -2.35,-0.634c-1.386,-4.503 -1.787,-7.928 -2.295,-11.733c-1.145,1.464 -3.585,5.931 -4.924,9.606c-5.595,-1.768 -5.996,-2.05 -13.86,-8.077c0.932,1.865 4.307,12.052 10.147,22.814c-0.876,6.592 -0.611,13.169 0.504,18.877c-9.373,11.775 -12.629,23.03 -14.102,38.129c-1.942,35.552 1.617,45.909 10.315,64.952c0.019,0.019 0.019,0.056 0.038,0.075c-0.33,3.677 0.222,9.517 0.82,13.393c2.2,11.812 4.897,19.947 14.756,32.924c0.037,0.038 0.056,0.094 0.093,0.131c6.333,-37.994 5.68,-38.925 7.032,-48.295c6.664,-47.962 6.374,-40.799 23.896,-74.746c7.113,4.903 14.988,6.626 26.153,2.91c8.099,4.709 16.37,8.301 39.284,8.301c22.704,-0.283 48.829,0.769 71.855,-14.046c-3.488,4.891 -11.412,13.345 -17.647,17.124c6.49,-1.373 11.146,-3.986 16.957,-10.894c-1.785,3.573 -3.886,8.98 -4.048,9.626c0.28,-0.336 4.01,-4.794 6.547,-8.768c-1.218,14.821 5.399,23.499 13.021,36.189c16.706,26.419 6.549,62.529 15.538,85.733c5.764,-9.32 13.133,-22.545 13.133,-33.111c9.718,-16.949 11.11,-39.38 6.323,-49.899c9.732,-29.157 7.766,-51.945 -14.533,-77.655Zm-202.935,-28.709c0.911,2.591 1.11,2.535 4.645,6.734c-1.753,-0.363 -2.919,-0.619 -3.973,-0.858c-0.409,-1.97 -0.672,-3.842 -0.672,-5.876Zm-4.682,-4.962c0.176,2.858 0.856,6.608 1.847,9.906c-5.344,-1.375 -3.358,-0.941 -5.223,-1.493c1.535,-4.615 2.113,-5.782 3.376,-8.413Zm3.209,186.949c-7.865,-14.186 -9.93,-19.01 -12.107,-33.372c-0.212,-1.653 -0.88,-6.428 -0.914,-8.711c-11.323,-25.892 -15.579,-75.056 2.257,-102.111l0,-0.019c0,0 0.745,-1.164 2.09,-2.835c-0.498,-2.507 -0.991,-7.797 -0.821,-13.58c1.38,2.462 2.947,4.701 4.346,6.846c0,-0.006 1.101,1.457 1.101,1.492c8.489,10.801 16.329,19.781 35.293,33.111c-22.767,36.886 -21.355,24.427 -31.245,119.179Zm219.443,-87.466c-0.664,4.399 -2.095,10.414 -2.871,13.039c5.186,13.185 -0.479,38.085 -5.71,49.209c-2.287,13.231 -4.747,15.895 -11.211,29.081c-4.62,-20.519 4.819,-56.93 -12.61,-84.091c-11.302,-18.736 -16.148,-21.191 -13.486,-44.34c0,0 0.113,-1.26 0.149,-1.586c-23.556,14.403 -49.574,16.031 -83.886,15.296c-9.919,0 -23.318,-1.246 -31.674,-6.417c-16.94,4.818 -23.224,-2.68 -37.327,-13.692c-15.227,-12.94 -25.572,-24.238 -38.333,-50.869c7.168,5.817 21.521,8.747 30.573,10.26c-6.105,-8.139 -9.698,-15.574 -11.323,-26.115c6.492,4.327 22.049,8.586 35.76,7.069c25.246,-2.37 60.595,-28.292 104.032,-8.636c20.154,8.892 30.38,21.407 32.775,27.98c0.018,0 0.037,0.019 0.074,0.019c0.112,0.037 0.224,0.056 0.353,0.075c0.032,0.033 0.619,0.168 0.672,0.168c13.012,4.337 13.884,5.146 26.488,19.847c7.085,8.691 24.138,26.041 17.555,63.703Z" style="fill:#26130b;fill-rule:nonzero;"/></g></g></g></g><defs><linearGradient id="_Linear1" x1="0" y1="0" x2="1" y2="0" gradientUnits="userSpaceOnUse" gradientTransform="matrix(600,0,0,600,0,300)"><stop offset="0" style="stop-color:#00efff;stop-opacity:1"/><stop offset="1" style="stop-color:#1dd5fa;stop-opacity:1"/></linearGradient><linearGradient id="_Linear3" x1="0" y1="0" x2="1" y2="0" gradientUnits="userSpaceOnUse" gradientTransform="matrix(4.56886e-15,-74.6152,74.6152,4.56886e-15,299.999,483.179)"><stop offset="0" style="stop-color:#f0b399;stop-opacity:0.8"/><stop offset="0.7" style="stop-color:#d17f5b;stop-opacity:1"/><stop offset="1" style="stop-color:#d17f5b;stop-opacity:1"/></linearGradient><linearGradient id="_Linear4" x1="0" y1="0" x2="1" y2="0" gradientUnits="userSpaceOnUse" gradientTransform="matrix(3.42665e-16,-5.59614,5.59614,3.42665e-16,299.999,429.083)"><stop offset="0" style="stop-color:#f7c1aa;stop-opacity:1"/><stop offset="0.1" style="stop-color:#f7c1aa;stop-opacity:1"/><stop offset="1" style="stop-color:#f0b399;stop-opacity:1"/></linearGradient><radialGradient id="_Radial5" cx="0" cy="0" r="1" gradientUnits="userSpaceOnUse" gradientTransform="matrix(-28.0439,2.93833,2.93833,28.0439,250.089,321.76)"><stop offset="0" style="stop-color:#fff;stop-opacity:1"/><stop offset="0.32" style="stop-color:#fcfdfd;stop-opacity:1"/><stop offset="0.5" style="stop-color:#f4f7f8;stop-opacity:1"/><stop offset="0.66" style="stop-color:#e5ecef;stop-opacity:1"/><stop offset="0.76" style="stop-color:#d8e2e7;stop-opacity:1"/><stop offset="1" style="stop-color:#d8e2e7;stop-opacity:1"/></radialGradient><linearGradient id="_Linear6" x1="0" y1="0" x2="1" y2="0" gradientUnits="userSpaceOnUse" gradientTransform="matrix(-11.1923,11.1923,-11.1923,-11.1923,266.889,310.164)"><stop offset="0" style="stop-color:#fff;stop-opacity:1"/><stop offset="1" style="stop-color:#fff;stop-opacity:0"/></linearGradient><radialGradient id="_Radial7" cx="0" cy="0" r="1" gradientUnits="userSpaceOnUse" gradientTransform="matrix(29.8457,0.620915,0.495538,-23.8754,258.982,318.086)"><stop offset="0" style="stop-color:#f0b399;stop-opacity:1"/><stop offset="0.7" style="stop-color:#f0b399;stop-opacity:0.298039"/><stop offset="1" style="stop-color:#ffd0bc;stop-opacity:0"/></radialGradient><radialGradient id="_Radial8" cx="0" cy="0" r="1" gradientUnits="userSpaceOnUse" gradientTransform="matrix(56.924,0,0,56.924,243.231,371.012)"><stop offset="0" style="stop-color:#000;stop-opacity:0"/><stop offset="0.95" style="stop-color:#000;stop-opacity:0"/><stop offset="1" style="stop-color:#000;stop-opacity:0.2"/></radialGradient><radialGradient id="_Radial9" cx="0" cy="0" r="1" gradientUnits="userSpaceOnUse" gradientTransform="matrix(28.042,2.93814,-2.93814,28.042,349.167,321.759)"><stop offset="0" style="stop-color:#fff;stop-opacity:1"/><stop offset="0.32" style="stop-color:#fcfdfd;stop-opacity:1"/><stop offset="0.51" style="stop-color:#f4f7f8;stop-opacity:1"/><stop offset="0.66" style="stop-color:#e5ecef;stop-opacity:1"/><stop offset="0.76" style="stop-color:#d8e2e7;stop-opacity:1"/><stop offset="1" style="stop-color:#d8e2e7;stop-opacity:1"/></radialGradient><linearGradient id="_Linear10" x1="0" y1="0" x2="1" y2="0" gradientUnits="userSpaceOnUse" gradientTransform="matrix(-11.1923,11.1923,-11.1923,-11.1923,359.225,310.164)"><stop offset="0" style="stop-color:#fff;stop-opacity:1"/><stop offset="1" style="stop-color:#fff;stop-opacity:0"/></linearGradient><radialGradient id="_Radial11" cx="0" cy="0" r="1" gradientUnits="userSpaceOnUse" gradientTransform="matrix(-29.8457,0.620915,-0.495538,-23.8754,340.27,318.086)"><stop offset="0" style="stop-color:#f0b399;stop-opacity:1"/><stop offset="0.7" style="stop-color:#f0b399;stop-opacity:0.298039"/><stop offset="1" style="stop-color:#ffd0bc;stop-opacity:0"/></radialGradient><radialGradient id="_Radial12" cx="0" cy="0" r="1" gradientUnits="userSpaceOnUse" gradientTransform="matrix(-56.924,0,0,56.924,356.025,371.012)"><stop offset="0" style="stop-color:#000;stop-opacity:0"/><stop offset="0.95" style="stop-color:#000;stop-opacity:0"/><stop offset="1" style="stop-color:#000;stop-opacity:0.2"/></radialGradient><radialGradient id="_Radial13" cx="0" cy="0" r="1" gradientUnits="userSpaceOnUse" gradientTransform="matrix(76.4806,0,0,76.4806,299.999,376.852)"><stop offset="0" style="stop-color:#ffe2d6;stop-opacity:0.498039"/><stop offset="0.9" style="stop-color:#ffd0bc;stop-opacity:0"/><stop offset="1" style="stop-color:#ffd0bc;stop-opacity:0"/></radialGradient><radialGradient id="_Radial14" cx="0" cy="0" r="1" gradientUnits="userSpaceOnUse" gradientTransform="matrix(69.0191,0,0,69.0191,299.999,264.929)"><stop offset="0" style="stop-color:#ffe2d6;stop-opacity:0.498039"/><stop offset="0.9" style="stop-color:#ffd0bc;stop-opacity:0"/><stop offset="1" style="stop-color:#ffd0bc;stop-opacity:0"/></radialGradient></defs></svg>