<?xml version="1.0" encoding="UTF-8" standalone="no"?><!DOCTYPE svg PUBLIC "-//W3C//DTD SVG 1.1//EN" "http://www.w3.org/Graphics/SVG/1.1/DTD/svg11.dtd"><svg width="100%" height="100%" viewBox="0 0 375 1891" version="1.1" xmlns="http://www.w3.org/2000/svg" xmlns:xlink="http://www.w3.org/1999/xlink" xml:space="preserve" xmlns:serif="http://www.serif.com/" style="fill-rule:evenodd;clip-rule:evenodd;stroke-linejoin:round;stroke-miterlimit:1.41421;"><g id="Background"><g><g><path d="M375,1824.92c-80.611,-25.181 -180.837,-44.188 -227.714,-81.822c-93.239,-74.853 -43.882,-208.395 -119.565,-227.854c-19.127,-4.918 -19.261,-5.079 -27.721,-9.73l0,385.37l0,-401.949l23.701,0l6.521,1.615c82.508,20.018 28.7,157.399 130.348,234.405c44.71,33.871 133.938,53.076 214.43,74.698l0,25.267Z" style="fill:#00459c;"/><path d="M375,1824.92l0,39.3c-77.507,-30.953 -189.935,-49.677 -239.017,-92.355c-86.083,-74.854 -40.514,-208.396 -110.389,-227.854c-17.66,-4.918 -17.783,-5.079 -25.594,-9.73l0,210.507l0,-239.274c8.46,4.651 8.594,4.812 27.721,9.73c75.683,19.459 26.326,153.001 119.565,227.854c46.868,37.626 147.065,56.634 227.714,81.822Z" style="fill:#1dd5fa;"/><path d="M2.618,1535.84c5.5,3.214 7.532,3.877 22.976,8.178c69.875,19.458 24.306,153 110.389,227.854c49.073,42.67 161.467,61.395 239.017,92.355l0,20.982l-375,0l0,-140.414l0,-210.507l2.618,1.552Z" style="fill:#00efff;"/></g></g><g><g><path d="M0,934.259c67.765,35.185 198.247,49.775 250.459,91.691c78.84,63.294 37.106,176.214 101.101,192.667c16.174,4.159 16.287,4.295 23.44,8.228l0,21.117c-7.798,-4.046 -7.922,-4.186 -25.555,-8.464c-69.766,-16.926 -24.268,-133.092 -110.218,-198.206c-49.13,-37.218 -161.827,-53.495 -239.227,-80.512l0,-26.521Z" style="fill:#02558b;"/><path d="M375,1202.52l0,24.325c-7.153,-3.933 -7.266,-4.069 -23.44,-8.228c-63.995,-16.453 -22.261,-129.373 -101.101,-192.667c-52.221,-41.924 -182.743,-56.511 -250.459,-91.691l0,-47.315c42.173,53.564 202.512,64.68 260.016,114.682c72.79,63.294 34.258,176.213 93.342,192.667c14.905,4.151 15.037,4.294 21.642,8.227Z" style="fill:#1dd5fa;"/><path d="M375,889.566l-243.961,0c-13.212,-10.445 -41.894,-19.47 -72.193,-24.266l316.154,0l0,24.266Z" style="fill:#00efff;"/><path d="M0,865.3l58.846,0c30.3,4.801 58.941,13.812 72.193,24.266l243.961,0l0,11.421l-265.965,0c-18.83,-14.02 -66.344,-25.563 -109.035,-28.167l0,-7.52Z" style="fill:#00efff;"/><path d="M375,900.987l0,301.533c-6.604,-3.932 -6.709,-4.068 -21.642,-8.227c-59.084,-16.454 -20.552,-129.373 -93.342,-192.667c-57.515,-50.012 -217.903,-61.122 -260.016,-114.682l0,-14.124c42.691,2.604 90.205,14.147 109.035,28.167l265.965,0Z" style="fill:#00efff;"/></g><g><path d="M375,796.341c-67.765,-35.185 -198.247,-49.775 -250.459,-91.691c-78.84,-63.294 -37.106,-176.213 -101.101,-192.667c-16.174,-4.158 -16.287,-4.295 -23.44,-8.227l0,-21.118c7.798,4.046 7.922,4.186 25.555,8.464c69.766,16.927 24.268,133.093 110.218,198.206c49.13,37.219 161.827,53.495 239.227,80.513l0,26.52Z" style="fill:#02558b;"/><path d="M0,528.08l0,-24.324c7.153,3.932 7.266,4.069 23.44,8.227c63.995,16.454 22.261,129.373 101.101,192.667c52.221,41.924 182.743,56.512 250.459,91.691l0,47.315c-42.173,-53.563 -202.512,-64.68 -260.016,-114.682c-72.79,-63.294 -34.258,-176.213 -93.342,-192.667c-14.905,-4.15 -15.037,-4.294 -21.642,-8.227Z" style="fill:#1dd5fa;"/><path d="M0,841.034l243.961,0c13.212,10.445 41.894,19.47 72.193,24.266l-316.154,0l0,-24.266Z" style="fill:#00efff;"/><path d="M375,865.3l-58.846,0c-30.3,-4.8 -58.941,-13.811 -72.193,-24.266l-243.961,0l0,-11.421l265.965,0c18.83,14.02 66.344,25.563 109.035,28.167l0,7.52Z" style="fill:#00efff;"/><path d="M0,829.613l0,-301.533c6.604,3.932 6.709,4.069 21.642,8.227c59.084,16.454 20.552,129.373 93.342,192.667c57.515,50.012 217.903,61.123 260.016,114.682l0,14.124c-42.691,-2.604 -90.205,-14.147 -109.035,-28.167l-265.965,0Z" style="fill:#00efff;"/></g></g><g><path d="M0,68.959c67.765,35.185 198.247,49.775 250.459,91.691c78.84,63.294 37.106,176.214 101.101,192.667c16.174,4.159 16.287,4.295 23.44,8.227l0,21.118c-7.798,-4.046 -7.922,-4.186 -25.555,-8.464c-69.766,-16.927 -24.268,-133.092 -110.218,-198.206c-49.13,-37.219 -161.827,-53.495 -239.227,-80.513l0,-26.52Z" style="fill:#02558b;"/><path d="M375,337.22l0,24.324c-7.153,-3.932 -7.266,-4.068 -23.44,-8.227c-63.995,-16.453 -22.261,-129.373 -101.101,-192.667c-52.221,-41.924 -182.743,-56.511 -250.459,-91.691l0,-47.315c42.173,53.564 202.512,64.68 260.016,114.682c72.79,63.294 34.258,176.213 93.342,192.667c14.905,4.151 15.037,4.294 21.642,8.227Z" style="fill:#1dd5fa;"/><path d="M375,24.266l-243.961,0c-13.212,-10.445 -41.894,-19.47 -72.193,-24.266l316.154,0l0,24.266Z" style="fill:#00efff;"/><path d="M0,0l58.846,0c30.3,4.8 58.941,13.811 72.193,24.266l243.961,0l0,11.421l-265.965,0c-18.83,-14.02 -66.344,-25.563 -109.035,-28.167l0,-7.52Z" style="fill:#00efff;"/><path d="M375,35.687l0,301.533c-6.604,-3.932 -6.709,-4.069 -21.642,-8.227c-59.084,-16.454 -20.552,-129.373 -93.342,-192.667c-57.515,-50.012 -217.903,-61.123 -260.016,-114.682l0,-14.124c42.691,2.604 90.205,14.147 109.035,28.167l265.965,0Z" style="fill:#00efff;"/></g></g></svg>