<?xml version="1.0" encoding="UTF-8" standalone="no"?><!DOCTYPE svg PUBLIC "-//W3C//DTD SVG 1.1//EN" "http://www.w3.org/Graphics/SVG/1.1/DTD/svg11.dtd"><svg width="100%" height="100%" viewBox="0 0 17 17" version="1.1" xmlns="http://www.w3.org/2000/svg" xmlns:xlink="http://www.w3.org/1999/xlink" xml:space="preserve" xmlns:serif="http://www.serif.com/" style="fill-rule:evenodd;clip-rule:evenodd;stroke-linejoin:round;stroke-miterlimit:1.41421;"><g id="bulb"><path id="_-Rounded-Rectangle-" serif:id="(Rounded Rectangle)" d="M17,4.25c0,-2.346 -1.904,-4.25 -4.25,-4.25l-8.5,0c-2.346,0 -4.25,1.904 -4.25,4.25l0,8.5c0,2.346 1.904,4.25 4.25,4.25l8.5,0c2.346,0 4.25,-1.904 4.25,-4.25l0,-8.5Z" style="fill:#fff;"/><g><rect id="Rectangle-path" x="6.577" y="13.5" width="3.846" height="1.923" style="fill:#00459c;"/><path id="Shape" d="M11.192,10.808c-0.737,0.456 -0.769,1.439 -0.769,2.307l0,0.385l-3.846,0l0,-0.385c0,-0.868 -0.045,-1.874 -0.769,-2.307c-1.459,-0.963 -2.329,-2.601 -2.308,-4.349c0.034,-2.729 2.272,-4.914 5,-4.881c2.728,-0.033 4.966,2.152 5,4.881c0.021,1.748 -0.849,3.386 -2.308,4.349Z" style="fill:#1dd5fa;fill-rule:nonzero;"/><path id="Shape1" serif:id="Shape" d="M9.269,9.897l0,3.603l-1.538,0l0,-3.603c-0.92,-0.323 -1.537,-1.191 -1.539,-2.166l1.385,0c0,0.51 0.413,0.923 0.923,0.923c0.51,0 0.923,-0.413 0.923,-0.923l1.385,0c-0.002,0.975 -0.619,1.843 -1.539,2.166Z" style="fill:#fff;fill-rule:nonzero;"/></g></g></svg>