<?xml version="1.0" encoding="UTF-8" standalone="no"?><!DOCTYPE svg PUBLIC "-//W3C//DTD SVG 1.1//EN" "http://www.w3.org/Graphics/SVG/1.1/DTD/svg11.dtd"><svg width="100%" height="100%" viewBox="0 0 25 25" version="1.1" xmlns="http://www.w3.org/2000/svg" xmlns:xlink="http://www.w3.org/1999/xlink" xml:space="preserve" xmlns:serif="http://www.serif.com/" style="fill-rule:evenodd;clip-rule:evenodd;stroke-linejoin:round;stroke-miterlimit:1.41421;"><g><path d="M25,22.5c0,-1.38 -1.12,-2.5 -2.5,-2.5l-20,0c-1.38,0 -2.5,1.12 -2.5,2.5c0,1.38 1.12,2.5 2.5,2.5l20,0c1.38,0 2.5,-1.12 2.5,-2.5Z" style="fill:#fff;"/><path d="M25,12.5c0,-1.38 -1.12,-2.5 -2.5,-2.5l-20,0c-1.38,0 -2.5,1.12 -2.5,2.5c0,1.38 1.12,2.5 2.5,2.5l20,0c1.38,0 2.5,-1.12 2.5,-2.5Z" style="fill:#fff;"/><path d="M25,2.5c0,-1.38 -1.12,-2.5 -2.5,-2.5l-20,0c-1.38,0 -2.5,1.12 -2.5,2.5c0,1.38 1.12,2.5 2.5,2.5l20,0c1.38,0 2.5,-1.12 2.5,-2.5Z" style="fill:#fff;"/></g></svg>