<?xml version="1.0" encoding="UTF-8" standalone="no"?><!DOCTYPE svg PUBLIC "-//W3C//DTD SVG 1.1//EN" "http://www.w3.org/Graphics/SVG/1.1/DTD/svg11.dtd"><svg width="100%" height="100%" viewBox="0 0 18 18" version="1.1" xmlns="http://www.w3.org/2000/svg" xmlns:xlink="http://www.w3.org/1999/xlink" xml:space="preserve" xmlns:serif="http://www.serif.com/" style="fill-rule:evenodd;clip-rule:evenodd;stroke-linejoin:round;stroke-miterlimit:1.41421;"><g id="mobile"><path d="M18,4.5c0,-2.484 -2.016,-4.5 -4.5,-4.5l-9,0c-2.484,0 -4.5,2.016 -4.5,4.5l0,9c0,2.484 2.016,4.5 4.5,4.5l9,0c2.484,0 4.5,-2.016 4.5,-4.5l0,-9Z" style="fill:#fff;"/><g><rect id="Rectangle-path" x="5.217" y="1.779" width="7.565" height="14.443" style="fill:#1dd5fa;"/><path id="Shape" d="M9,14.192c0.38,0 0.688,0.308 0.688,0.688c0,0.38 -0.308,0.688 -0.688,0.688c-0.38,0 -0.688,-0.308 -0.688,-0.688c0,-0.38 0.308,-0.688 0.688,-0.688Zm-2.751,-11.003l5.502,0l0,10.316l-5.502,0l0,-10.316Z" style="fill:#00459c;"/></g></g></svg>