<?xml version="1.0" encoding="UTF-8" standalone="no"?><!DOCTYPE svg PUBLIC "-//W3C//DTD SVG 1.1//EN" "http://www.w3.org/Graphics/SVG/1.1/DTD/svg11.dtd"><svg width="100%" height="100%" viewBox="0 0 17 17" version="1.1" xmlns="http://www.w3.org/2000/svg" xmlns:xlink="http://www.w3.org/1999/xlink" xml:space="preserve" xmlns:serif="http://www.serif.com/" style="fill-rule:evenodd;clip-rule:evenodd;stroke-linejoin:round;stroke-miterlimit:1.41421;"><g id="Shape"><path d="M17,4.25c0,-2.346 -1.904,-4.25 -4.25,-4.25l-8.5,0c-2.346,0 -4.25,1.904 -4.25,4.25l0,8.5c0,2.346 1.904,4.25 4.25,4.25l8.5,0c2.346,0 4.25,-1.904 4.25,-4.25l0,-8.5Z" style="fill:#fff;"/><g><path d="M12.25,1.833l-5.066,0l-2.851,5.834l2.5,0l-3.333,7.5l10,-7.917l-3.75,0l2.5,-5.417Z" style="fill:#1dd5fa;"/><path d="M10.342,9.75l-6.842,5.417l2.408,-5.417l4.434,0Z" style="fill:#00459c;"/></g></g></svg>