<?xml version="1.0" encoding="UTF-8" standalone="no"?><!DOCTYPE svg PUBLIC "-//W3C//DTD SVG 1.1//EN" "http://www.w3.org/Graphics/SVG/1.1/DTD/svg11.dtd"><svg width="100%" height="100%" viewBox="0 0 17 17" version="1.1" xmlns="http://www.w3.org/2000/svg" xmlns:xlink="http://www.w3.org/1999/xlink" xml:space="preserve" xmlns:serif="http://www.serif.com/" style="fill-rule:evenodd;clip-rule:evenodd;stroke-linejoin:round;stroke-miterlimit:1.41421;"><g id="lock"><path d="M17,4.25c0,-2.346 -1.904,-4.25 -4.25,-4.25l-8.5,0c-2.346,0 -4.25,1.904 -4.25,4.25l0,8.5c0,2.346 1.904,4.25 4.25,4.25l8.5,0c2.346,0 4.25,-1.904 4.25,-4.25l0,-8.5Z" style="fill:#fff;"/><g><rect id="Rectangle-path" x="3.5" y="6.577" width="10" height="8.846" style="fill:#1dd5fa;"/><path id="Shape" d="M11.192,6.577l0,-1.154c-0.042,-1.469 -1.223,-2.649 -2.692,-2.692c-1.378,0 -2.692,1.486 -2.692,2.692l0,1.154l-1.154,0l0,-1.154c0.014,-2.118 1.728,-3.832 3.846,-3.846c2.38,0 3.846,2.175 3.846,3.846l0,1.154l-1.154,0Zm-7.692,8.077l10,0l0,0.769l-10,0l0,-0.769Zm5,-5.769c0.85,0 1.538,0.688 1.538,1.538c0,0.85 -0.688,1.539 -1.538,1.539c-0.85,0 -1.538,-0.689 -1.538,-1.539c0,-0.85 0.688,-1.538 1.538,-1.538Zm-0.769,1.538l1.538,0l0,3.077l-1.538,0l0,-3.077Z" style="fill:#00459c;"/></g></g></svg>